<?xml version="1.0" standalone="no"?>
<!DOCTYPE svg PUBLIC "-//W3C//DTD SVG 20010904//EN"
 "http://www.w3.org/TR/2001/REC-SVG-20010904/DTD/svg10.dtd">
<svg version="1.0" xmlns="http://www.w3.org/2000/svg"
 width="700.000000pt" height="700.000000pt" viewBox="0 0 700.000000 700.000000"
 preserveAspectRatio="xMidYMid meet">
<metadata>
Created by potrace 1.11, written by Peter Selinger 2001-2013
</metadata>
<g transform="translate(0.000000,700.000000) scale(0.100000,-0.100000)"
fill="#000000" stroke="none">
<path d="M3395 6721 c-175 -102 -1069 -617 -1100 -635 -16 -9 -46 -26 -65 -37
-34 -20 -458 -266 -530 -307 -63 -36 -481 -277 -670 -387 -102 -59 -225 -130
-275 -158 -49 -27 -92 -52 -94 -53 -8 -7 -2 -3289 6 -3291 5 -2 87 -49 183
-104 96 -56 191 -110 210 -121 19 -11 40 -24 45 -28 6 -4 35 -21 65 -37 30
-17 111 -63 180 -103 69 -40 141 -81 160 -92 80 -46 379 -219 580 -336 118
-69 240 -138 270 -155 30 -17 79 -45 108 -64 29 -18 55 -33 57 -33 3 0 81 -44
173 -98 92 -54 174 -101 182 -105 8 -4 24 -13 35 -20 25 -15 167 -97 215 -124
19 -11 110 -64 202 -117 l166 -96 44 23 c24 13 156 89 293 168 366 213 726
421 755 436 14 8 39 22 55 32 34 20 692 401 1075 622 140 81 327 188 415 240
88 51 170 97 182 103 21 10 23 18 23 91 4 900 1 3195 -4 3203 -3 5 -43 31 -88
57 -114 65 -88 50 -665 384 -285 164 -532 307 -550 317 -18 11 -88 51 -155 90
-68 39 -139 80 -158 90 -19 11 -36 22 -38 27 -2 4 -7 7 -12 7 -4 0 -133 73
-286 161 -290 168 -320 185 -380 219 -19 11 -104 60 -187 109 -181 105 -315
181 -319 181 -2 0 -48 -27 -103 -59z m208 -505 c51 -29 108 -63 127 -74 19
-11 62 -35 95 -54 33 -19 134 -77 225 -130 91 -52 210 -121 265 -153 55 -32
125 -71 155 -88 30 -16 62 -36 71 -43 8 -8 18 -14 22 -14 3 0 72 -39 153 -86
80 -47 168 -98 194 -112 26 -15 160 -92 298 -172 l252 -145 -980 -3 c-539 -1
-1421 -1 -1960 0 l-980 3 217 125 c119 69 237 137 262 151 49 27 239 137 591
342 52 30 187 108 300 173 113 65 288 166 390 225 102 60 191 108 198 109 8 0
55 -24 105 -54z m-435 -3514 c1 -980 -1 -1782 -5 -1782 -5 0 -24 10 -43 22
-19 12 -161 94 -315 183 -154 89 -323 187 -375 217 -52 30 -288 167 -525 303
-236 136 -488 282 -560 323 -71 41 -139 80 -150 86 -11 6 -38 23 -60 37 l-40
26 1 1179 c1 648 2 1181 3 1184 0 3 466 5 1034 5 l1032 0 3 -1783z m2727 1776
c7 -4 10 -409 10 -1183 l-1 -1178 -39 -28 c-22 -15 -43 -28 -47 -29 -3 0 -51
-27 -106 -59 -55 -32 -124 -72 -154 -89 -29 -16 -147 -84 -262 -151 -115 -66
-211 -121 -213 -121 -2 0 -16 -8 -31 -19 -15 -10 -124 -74 -242 -142 -118 -67
-385 -221 -592 -341 -207 -120 -380 -218 -383 -218 -10 0 -5 3558 5 3562 19 6
2045 3 2055 -4z"/>
</g>
</svg>
